<?xml version="1.0" encoding="UTF-8"?>
<svg id="Layer_1" data-name="Layer 1" xmlns="http://www.w3.org/2000/svg" xmlns:xlink="http://www.w3.org/1999/xlink" viewBox="0 0 198.46 40.79">
  <defs>
    <clipPath id="clippath">
      <path d="M15.12,15.13c1.31.99,2.14,2.32,2.51,3.98h-3.42c-.32-.76-.83-1.35-1.53-1.79-.7-.44-1.53-.67-2.49-.67s-1.77.21-2.5.64-1.29,1.05-1.7,1.85-.61,1.74-.61,2.82c0,1.71.45,3.05,1.36,4.01.91.96,2.17,1.45,3.76,1.45,1.17,0,2.18-.34,3.03-1.03.85-.69,1.39-1.65,1.64-2.89l-5.53-.02v-2.34s8.28.03,8.28.03v3.15c-.25,1.08-.7,2.07-1.38,2.98-.67.91-1.56,1.63-2.65,2.18s-2.34.81-3.74.81c-1.61,0-3.02-.36-4.24-1.07-1.22-.71-2.17-1.69-2.84-2.95-.66-1.26-1-2.7-.99-4.32s.35-3.06,1.03-4.32c.67-1.25,1.63-2.23,2.85-2.94,1.22-.7,2.63-1.05,4.24-1.05,1.98.01,3.63.51,4.94,1.5ZM32.2,14.71c1.24.71,2.21,1.71,2.93,2.99.71,1.27,1.07,2.72,1.06,4.32s-.37,3.05-1.09,4.32c-.72,1.28-1.71,2.27-2.95,2.98-1.25.7-2.63,1.05-4.16,1.05s-2.91-.37-4.15-1.08c-1.24-.71-2.21-1.71-2.93-3-.71-1.29-1.07-2.73-1.06-4.33s.37-3.04,1.09-4.32c.72-1.27,1.71-2.26,2.95-2.97,1.25-.7,2.63-1.05,4.16-1.05s2.91.37,4.15,1.08ZM25.51,17.28c-.73.43-1.29,1.05-1.71,1.86-.41.81-.62,1.76-.63,2.83s.2,2.03.6,2.84c.4.81.97,1.43,1.69,1.87s1.56.65,2.52.66,1.8-.21,2.52-.64c.72-.43,1.29-1.05,1.71-1.86.41-.81.62-1.76.63-2.83s-.2-2.03-.6-2.84-.97-1.43-1.69-1.87c-.73-.44-1.56-.65-2.52-.66s-1.8.21-2.52.64ZM51.98,26.39c-.69,1.23-1.67,2.19-2.96,2.87-1.29.68-2.83,1.02-4.6,1.01l-5.82-.02.06-16.35,5.81.02c1.77,0,3.3.35,4.59,1.03,1.29.67,2.27,1.63,2.94,2.86.68,1.23,1.01,2.67,1,4.3,0,1.62-.34,3.05-1.03,4.28ZM48.25,25.98c.97-.92,1.45-2.22,1.46-3.89,0-1.69-.47-2.99-1.43-3.92-.96-.93-2.32-1.4-4.08-1.41h-2.27s-.04,10.57-.04,10.57h2.27c1.76.01,3.13-.44,4.09-1.36ZM63.96,30.34l-3.8-6.38h-1.44s-.02,6.36-.02,6.36h-3.26s.06-16.36.06-16.36l6.23.02c1.9,0,3.34.47,4.34,1.41.99.93,1.48,2.15,1.48,3.66,0,1.24-.35,2.27-1.04,3.1-.69.83-1.68,1.38-2.98,1.65l4.05,6.54h-3.6ZM58.74,21.72h2.69c1.87.02,2.81-.8,2.81-2.45,0-.79-.22-1.4-.68-1.84s-1.16-.67-2.12-.67h-2.69s-.02,4.97-.02,4.97ZM73.02,16.63l-.02,4.24,5.79.02v2.5s-5.8-.02-5.8-.02l-.02,4.4,6.48.02v2.62s-9.75-.04-9.75-.04l.06-16.35,9.75.04v2.59s-6.5-.02-6.5-.02ZM91.21,14.1l-.04,11.53c0,1.57-.45,2.79-1.32,3.67-.87.87-2.08,1.3-3.63,1.3-1.67,0-2.99-.49-3.95-1.45s-1.45-2.33-1.44-4.11h3.22c0,.85.17,1.48.51,1.93.35.45.86.67,1.54.67.62,0,1.07-.18,1.37-.54s.44-.86.45-1.49l.04-11.53h3.27Z" fill="none"/>
    </clipPath>
    <linearGradient id="linear-gradient" x1="150.56" y1="10.86" x2="150.56" y2="2.07" gradientUnits="userSpaceOnUse">
      <stop offset="0" stop-color="#c88828"/>
      <stop offset=".26" stop-color="#c98b2b"/>
      <stop offset=".47" stop-color="#cf9534"/>
      <stop offset=".67" stop-color="#d9a744"/>
      <stop offset=".86" stop-color="#e6bf5a"/>
      <stop offset="1" stop-color="#f3d66f"/>
    </linearGradient>
  </defs>
  <g>
    <g clip-path="url(#clippath)">
      <g>
        <path d="M.27,29.22c-1.22-5.4-2.4-10.81-3.7-16.19-.12-.48.22-1.01,2.1-1.08,33.71-1.43,48.45-.69,80.84-7.99,1.86-.42,18.59-14.26,18.69-13.78,1.13,5.42,2.37,10.82,3.59,16.22-1.45.34-2.89.68-4.33,1.01-28.47,6.4-56.93,12.8-85.39,19.2-3.93.88-7.87,1.75-11.8,2.62Z" fill="#5fb133"/>
        <path d="M.27,29.22c3.94-.87,7.87-1.74,11.8-2.62,28.46-6.39,56.93-12.8,85.39-19.2,1.45-.32,2.89-.67,4.33-1.01,1.26,5.59,2.51,11.19,3.77,16.77-1.85.42-33,.92-34.84,1.34-32,7.19-34.69,14.3-66.69,21.49-1.26-5.6-2.51-11.19-3.77-16.78Z" fill="#4186cd"/>
        <path d="M105.64,23.5c1.2,5.31-9.66,4.86-8.38,10.15.13.51-13.71,5.79-16.01,6.31-32.25,7.22-41.04-2.1-70.99,22.45-2.31.52-2.5.37-2.61-.14-1.12-5.33-2.34-10.64-3.54-15.95,33.84-7.61,57.54-30.87,101.52-22.82Z" fill="#bc1362"/>
        <path d="M105.64,23.5c-33.84,7.61-67.68,15.22-101.52,22.82-.01-.05-.03-.11-.04-.16,30.7-6.9,61.41-13.8,92.11-20.72,1.29-.29,2.73-.48,3.84-1.01,1.85-.42,3.69-.84,5.54-1.26.03.11.05.21.07.33Z" fill="#c1005b"/>
        <path d="M100.03,24.44c-1.11.53-2.55.72-3.84,1.01-30.7,6.91-61.4,13.82-92.11,20.72-.01-.05-.03-.11-.04-.16,32-7.19,63.99-14.38,95.99-21.57Z" fill="#706db0"/>
      </g>
    </g>
    <line x1="98.62" y1="4.91" x2="98.62" y2="38.14" fill="none" stroke="#231f20" stroke-miterlimit="10" stroke-width=".25"/>
    <path d="M141.34,5.58c.09.05.19.07.29.07.12-.03.23-.07.3-.18,0,0,0-.01.01-.02,0,0,0-.01.01-.02s0-.01,0-.02c0,0,0-.01,0-.02,0,0,0-.01,0-.02,0,0,0-.01,0-.02,0,0,0-.01,0-.02s0-.01,0-.02c0,0,0-.01,0-.02s0-.01,0-.02c0,0,0-.01,0-.02,0,0,0-.01,0-.02s0-.01,0-.02c0,0,0-.01,0-.02,0,0,0-.01,0-.02,0,0,0-.01,0-.02,0,0,0-.01,0-.02,0,0,0-.01,0-.02,0,0,0-.01,0-.02s0-.01,0-.02c0,0,0-.01,0-.02s0-.01-.01-.02c0,0,0-.01-.01-.02,0,0,0-.01-.01-.02,0,0,0-.01-.01-.02s0-.01-.01-.02c0,0,0-.01-.01-.02s-.01-.01-.02-.02c0,0-.01,0-.02-.01,0,0-.01,0-.02-.01,0,0-.01,0-.02-.01s-.01,0-.02-.01c-.09-.05-.17-.06-.27-.06-.13.02-.25.07-.32.19-.06.1-.08.22-.05.33.03.11.09.2.19.26ZM144.98,9.45c.06.08.26.35.32.4.06.09.12.17.19.26.25-.3.49-.62.73-.93-.24-.31-.47-.63-.73-.93-.08.09-.15.18-.22.28-.08.1-.24.28-.3.38-.02.03-.05.06-.07.09-.05.06-.1.12-.15.18.05.06.1.13.15.19.02.03.05.06.08.1ZM142.47,8.09c.21-.06.41-.15.6-.26.4-.25.8-.57,1.05-.97-.47.13-.94.09-1.37-.15-.25-.14-.47-.35-.65-.57-.07-.08-.14-.21-.22-.27.08.59.05,1.22-.33,1.71-.12.15-.26.28-.41.39.43.24.86.26,1.33.13ZM148.96,5.23s0,.01,0,.02c0,0,0,.01,0,.02,0,0,0,.01,0,.02,0,0,0,.01,0,.02,0,0,0,.01,0,.02,0,0,0,.01,0,.02,0,0,0,.01,0,.02,0,0,0,.01.01.02,0,0,0,.01.01.02,0,0,0,.01.01.02,0,0,0,.01.01.02s0,.01.01.02c0,0,0,.01.01.02,0,0,.01.01.02.02,0,0,.01.01.02.02,0,0,.01,0,.02.01,0,0,.01,0,.02.01,0,0,.01,0,.02.01,0,0,.01,0,.02.01.1.06.21.07.32.06.12-.03.23-.08.29-.2,0,0,0-.01.01-.02,0,0,0-.01.01-.02s0-.01,0-.02c0,0,0-.01,0-.02,0,0,0-.01,0-.02,0,0,0-.01,0-.02s0-.01,0-.02c0,0,0-.01,0-.02s0-.01,0-.02c0,0,0-.01,0-.02,0,0,0-.01,0-.02,0,0,0-.01,0-.02,0,0,0-.01,0-.02s0-.01,0-.02,0-.01,0-.02c0,0,0-.01,0-.02,0,0,0-.01,0-.02,0,0,0-.01,0-.02,0,0,0-.01,0-.02,0,0,0-.01,0-.02,0,0,0-.01-.01-.02,0,0,0-.01-.01-.02s0-.01-.01-.02c0,0,0-.01-.01-.02,0,0,0-.01-.01-.02,0,0,0-.01-.02-.02s-.01-.01-.02-.02c0,0-.01,0-.02-.01,0,0-.01,0-.02-.01,0,0-.01,0-.02-.01,0,0-.01,0-.02-.01,0,0-.01,0-.02-.01-.1-.05-.2-.06-.3-.05-.13.03-.23.08-.31.2,0,0,0,.01-.01.02,0,0,0,.01-.01.02,0,0,0,.01,0,.02s0,.01,0,.02c0,0,0,.01,0,.02,0,0,0,.01,0,.02,0,0,0,.01,0,.02,0,0,0,.01,0,.02s0,.01,0,.02,0,.01,0,.02,0,.01,0,.02c0,0,0,.01,0,.02,0,0,0,.01,0,.02ZM144.62,3.75s0,.03.01.04c0,.01,0,.03.01.04,0,.01,0,.03.02.04,0,.01.01.03.02.04,0,.01.01.03.02.04,0,.01.01.03.02.04,0,.01.02.03.02.04,0,.01.02.02.02.04,0,.01.02.02.03.04,0,.01.02.02.03.03,0,.01.02.02.03.03.01.01.02.02.03.03s.02.02.03.03c.01,0,.02.02.03.03.19.15.42.2.66.18.26-.05.48-.17.63-.4,0-.01.02-.03.02-.04,0-.01.01-.03.02-.04,0-.01.01-.03.02-.04s.01-.03.02-.04c0-.01.01-.03.02-.04s0-.03.01-.04c0-.01,0-.03.01-.04,0-.01,0-.03,0-.04s0-.03,0-.04,0-.03,0-.05,0-.03,0-.05,0-.03,0-.05c0-.02,0-.03,0-.05s0-.03,0-.05,0-.03,0-.05c0-.01,0-.03,0-.04,0-.01,0-.03-.01-.04,0-.01,0-.03-.01-.04s0-.03-.01-.04-.01-.03-.02-.04c0-.01-.01-.03-.02-.04,0-.01-.01-.03-.02-.04s-.01-.03-.02-.04c0-.01-.02-.02-.02-.04,0-.01-.02-.02-.03-.04,0-.01-.02-.02-.03-.03s-.02-.02-.03-.03c0-.01-.02-.02-.03-.03-.01-.01-.02-.02-.03-.03-.01,0-.02-.02-.03-.03-.01,0-.02-.02-.03-.03-.01,0-.02-.02-.04-.02-.17-.11-.37-.16-.57-.14-.25.03-.47.14-.63.34-.15.19-.21.44-.18.67,0,.01,0,.03,0,.04,0,.01,0,.03,0,.04ZM152.51,5.97s0,.01,0,.02c0,0,0,.01,0,.02,0,0,0,.01,0,.02,0,0,0,.01,0,.02.03.11.12.21.22.26.09.05.19.06.29.05.13-.04.23-.11.29-.23,0,0,0-.01,0-.02,0,0,0-.01,0-.02,0,0,0-.01,0-.02,0,0,0-.01,0-.02,0,0,0-.01,0-.02,0,0,0-.01,0-.02,0,0,0-.01,0-.02,0,0,0-.01,0-.02s0-.01,0-.02c0,0,0-.01,0-.02,0,0,0-.01,0-.02,0,0,0-.01,0-.02,0,0,0-.01,0-.02,0,0,0-.01,0-.02,0,0,0-.01,0-.02,0,0,0-.01,0-.02-.04-.11-.12-.21-.23-.26-.09-.04-.18-.04-.27-.04-.13.04-.23.1-.29.21,0,0,0,.01,0,.02,0,0,0,.01,0,.02s0,.01,0,.02c0,0,0,.01,0,.02,0,0,0,.01,0,.02,0,0,0,.01,0,.02,0,0,0,.01,0,.02,0,0,0,.01,0,.02s0,.01,0,.02c0,0,0,.01,0,.02,0,0,0,.01,0,.02,0,0,0,.01,0,.02ZM147.92,7.84c.47.28,1.02.46,1.56.32.13-.03.25-.08.37-.13-.45-.33-.68-.72-.76-1.28-.02-.15-.03-.3-.03-.45,0-.09.04-.32.02-.4-.39.49-.81.93-1.46,1.01-.27.03-.52,0-.78-.08.27.41.66.76,1.08,1.01ZM134.06,27.44c-.9-1.01-2.02-2.89-3.38-5.63.94-.31,1.66-.79,2.18-1.45.52-.66.77-1.42.77-2.29,0-1.3-.47-2.28-1.42-2.95-.94-.67-2.33-1-4.16-1-.68,0-1.34.03-1.99.1-.65.07-1.3.17-1.96.32-.56-.11-1.11-.19-1.64-.26-.53-.06-1.06-.1-1.57-.12v.5c.84.05,1.42.31,1.72.8.3.48.45,1.64.45,3.47v5.97c0,1.74-.14,2.83-.43,3.29-.29.46-.84.71-1.65.76v.52c.46-.02.95-.06,1.49-.12.53-.06,1.21-.16,2.03-.3.67.12,1.29.22,1.87.29s1.11.11,1.61.13v-.52c-.81-.05-1.35-.31-1.64-.78-.29-.48-.43-1.63-.43-3.46v-2.07c.19,0,.43.01.74.02,1.04.03,1.72.34,2.05.94.16.29.4.74.71,1.36.84,1.7,1.62,2.86,2.34,3.49.46.4,1,.69,1.61.87.61.17,1.4.26,2.38.26.17,0,.35,0,.54-.02.19-.01.42-.04.7-.08v-.52h-.14c-.96,0-1.89-.51-2.78-1.52ZM129.66,21.09c-.55.58-1.32.87-2.3.87-.19,0-.39,0-.62-.03-.23-.02-.5-.05-.83-.09v-3.61c0-.67.01-1.71.04-3.11v-.12s.07-.01.12-.01c.44-.05.75-.07.92-.07,1.11,0,1.96.33,2.57.98.61.66.91,1.58.91,2.77,0,1.03-.28,1.83-.83,2.41ZM142.25,10.62c-.09-.12-.18-.25-.28-.37-.1-.12-.19-.24-.29-.35-.1-.12-.2-.23-.31-.34-.1-.11-.21-.22-.32-.33-.11-.11-.22-.22-.33-.32-.11-.1-.23-.21-.34-.31-.14-.12-.34-.32-.5-.4-.34-.3-.75-.54-1.13-.79-.23-.14-.46-.29-.7-.42.36.71.71,1.43,1.06,2.14.06.13.31.68.38.76.09.22.2.44.3.65l.59,1.24c.1.21.2.42.29.64.33-.13.66-.26.99-.37,1.62-.52,3.29-.67,4.98-.56.09.02.19.02.28.03.2.02.4.05.6.08.96.15,1.89.42,2.77.83l1.85-3.79.58-1.16c.09-.17.18-.34.26-.52-1.46.75-2.74,1.74-3.78,3.01-.16.2-.32.4-.47.6-.15.21-.29.42-.42.64-.02.01-.02.01-.05,0v-.02c.05-.19.14-.36.22-.54.78-1.67,2.34-3.1,3.88-4.07-.13.06-.27.13-.39.2-.24.13-.47.26-.7.41-.23.15-.45.3-.66.46-.25.19-.52.44-.8.58-.02.01-.05.02-.07.03-.02.01-.05.02-.07.03-.02,0-.05.02-.07.03-.03,0-.05.02-.08.02-.03,0-.05.01-.08.02-.03,0-.05.01-.08.01-.03,0-.05,0-.08.01-.03,0-.05,0-.08,0-.57.03-1.17-.22-1.62-.55-.16-.11-.31-.25-.45-.38h-.01c-.06-.08-.13-.15-.19-.21-.11-.12-.21-.24-.31-.37-.52-.69-.86-1.55-1.12-2.38-.44,1.4-1.1,2.86-2.47,3.57-.49.26-1.06.37-1.6.2-.43-.14-.77-.45-1.13-.71-.42-.32-1.01-.72-1.52-.89.44.25.82.55,1.2.87.84.7,1.55,1.47,2.13,2.4.27.43.52.9.67,1.39-.08-.13-.17-.26-.25-.39-.09-.13-.18-.25-.27-.38ZM141.91,8.89c.23-.02.46-.05.69-.12,1.15-.34,1.99-1.23,2.56-2.25.07-.12.14-.25.19-.37.05-.1.08-.22.14-.32,0,0,0,0,0,0,.31.72.63,1.29,1.17,1.86.14.15.3.3.47.42.52.44,1.21.75,1.9.79-.54.65-1.02,1.39-1.31,2.18-.29-.05-.59-.11-.88-.12-.08-.03-.29-.03-.39-.03-.13-.01-.27-.02-.4-.03-.13,0-.27-.01-.41-.01s-.27,0-.41,0c-.14,0-.27,0-.4.02-.13,0-.27.02-.4.03s-.27.03-.4.04c-.13.02-.27.04-.4.06-.13.02-.27.05-.4.07-.22-.62-.89-1.74-1.32-2.23ZM195.38,14.28c-.37.05-.9.14-1.58.27-.59-.12-1.1-.2-1.52-.26-.43-.06-.82-.1-1.19-.12v.52c.8.02,1.35.33,1.64.91.29.59.44,1.94.44,4.05v5.78c-1.47-1.59-2.89-3.15-4.25-4.7-1.36-1.55-2.67-3.07-3.9-4.56-.05-.06-.12-.15-.23-.28-.93-1.14-1.58-1.7-1.96-1.7-.12,0-.27.02-.47.06-.19.04-.49.11-.88.22-.37-.06-.76-.12-1.17-.16-.41-.05-.87-.09-1.37-.13v.52c.9.06,1.51.34,1.82.83.31.49.47,1.82.47,3.98v3.3c0,2.81-.14,4.54-.44,5.19s-.85.97-1.69.97v.52c.37-.02.76-.06,1.18-.12.42-.06.94-.15,1.56-.26.51.1,1.02.19,1.51.25.5.07.98.11,1.44.13v-.52c-.53-.03-.95-.14-1.27-.31-.32-.17-.54-.42-.66-.74-.14-.41-.25-1.11-.31-2.11s-.09-2.47-.09-4.43v-3.9c1.61,1.73,3.29,3.6,5.03,5.61s3.54,4.15,5.4,6.43c.26,0,.52.02.78.06.26.04.52.09.79.17-.01-.44-.03-.89-.04-1.33s-.02-.88-.02-1.3v-4.54c0-3.46.13-5.64.4-6.52s.77-1.33,1.52-1.33h.08v-.52c-.31.02-.65.06-1.02.11ZM145.5,13.91c-2.37,0-4.33.75-5.88,2.24-1.55,1.49-2.32,3.38-2.32,5.66s.77,4.18,2.32,5.68c1.54,1.5,3.5,2.25,5.88,2.25s4.33-.75,5.88-2.25c1.55-1.5,2.32-3.39,2.32-5.68s-.78-4.15-2.32-5.65-3.51-2.25-5.88-2.25ZM149.01,27.05c-.88,1.3-2.05,1.95-3.51,1.95s-2.63-.65-3.5-1.94c-.87-1.3-1.31-3.05-1.31-5.25s.44-3.93,1.31-5.22c.87-1.29,2.04-1.94,3.5-1.94s2.63.65,3.51,1.94c.88,1.29,1.32,3.03,1.32,5.22s-.44,3.94-1.32,5.24ZM175.98,14.53c-.51-.1-.99-.18-1.42-.24-.43-.06-.84-.1-1.21-.12v.52c.52.04.9.17,1.14.38.24.21.36.52.36.92,0,.48-.18,1.36-.55,2.64-.37,1.28-1.07,3.44-2.11,6.48-.93-2.13-1.77-4.13-2.53-6.01-.76-1.88-1.41-3.57-1.94-5.06h-1.07c-.55,1.55-1.17,3.25-1.88,5.08-.71,1.84-1.48,3.79-2.33,5.86-.83-2.39-1.47-4.4-1.93-6.04-.46-1.64-.69-2.71-.69-3.21,0-.33.1-.59.3-.76.2-.17.51-.27.92-.29v-.52c-.44.02-.9.06-1.4.13s-1.04.16-1.63.29c-.64-.11-1.24-.2-1.79-.27-.55-.07-1.06-.12-1.53-.15v.52c.92.14,1.64.88,2.14,2.22h0c.57,1.58,1.21,3.47,1.91,5.66.7,2.19,1.41,4.54,2.14,7.04h1.14c.75-2.1,1.49-4.11,2.22-6.04s1.43-3.73,2.11-5.41c1.15,2.78,2.11,5.15,2.89,7.13s1.31,3.42,1.61,4.32h1.12c.83-2.65,1.64-5.12,2.42-7.41.78-2.29,1.4-4.03,1.87-5.22.32-.81.64-1.38.99-1.7.35-.32.81-.52,1.38-.58v-.52c-.39.01-.8.05-1.24.11-.44.06-.91.14-1.41.25ZM150.14,12.87c-1.41-.75-3.44-1.01-5.03-.95-.12,0-.24,0-.36.01-.12,0-.24.01-.36.02s-.24.02-.36.04c-.12.01-.24.03-.36.05-.12.02-.24.04-.36.06-.12.02-.24.05-.35.07-.12.03-.23.05-.35.08-.12.03-.23.06-.35.09-.48.14-.96.33-1.43.51-.1.04-.7,1.64-.73,1.77.23-.21,2.43-1.73,5.15-1.8,3.34,0,5.21,1.55,5.41,1.64-.04-.2-.38-.99-.43-1.19-.03-.14-.07-.28-.11-.41ZM117.18,28.03c-.77.58-1.8.87-3.08.87-1.76,0-3.18-.65-4.27-1.95-1.09-1.3-1.63-3.04-1.63-5.2s.51-3.91,1.52-5.19,2.39-1.91,4.13-1.91c1.31,0,2.35.35,3.12,1.06.77.7,1.2,1.7,1.29,2.98h.76c0-.44-.01-.89-.04-1.35-.03-.46-.07-.95-.13-1.46.08-.2.15-.42.22-.66.07-.24.15-.53.24-.86l-.52-.18c-.06.1-.14.18-.24.23-.1.05-.22.07-.37.07-.06,0-.59-.09-1.58-.28s-1.96-.28-2.9-.28c-2.71,0-4.88.74-6.51,2.21-1.63,1.47-2.45,3.42-2.45,5.84s.82,4.26,2.45,5.67c1.63,1.41,3.83,2.11,6.61,2.11,1.03,0,2-.1,2.91-.29.92-.19,1.72-.47,2.4-.83,0-.11-.02-.23-.04-.35-.02-.13-.05-.31-.1-.56.08-.37.15-.73.22-1.1.06-.36.11-.72.15-1.08h-.77c-.15,1.08-.61,1.91-1.38,2.49ZM137.85,6.34c.09.04.19.05.29.04.13-.04.24-.1.31-.22,0,0,0-.01.01-.02s0-.01,0-.02c0,0,0-.01,0-.02,0,0,0-.01,0-.02s0-.01,0-.02c0,0,0-.01,0-.02s0-.01,0-.02c0,0,0-.01,0-.02,0,0,0-.01,0-.02,0,0,0-.01,0-.02,0,0,0-.01,0-.02,0,0,0-.01,0-.02,0,0,0-.01,0-.02,0,0,0-.01,0-.02,0,0,0-.01,0-.02,0,0,0-.01,0-.02,0,0,0-.01,0-.02s0-.01,0-.02,0-.01,0-.02c0,0,0-.01,0-.02,0,0,0-.01-.01-.02,0,0,0-.01-.01-.02,0,0,0-.01-.01-.02,0,0,0-.01-.01-.02,0,0,0-.01-.01-.02,0,0-.01-.01-.02-.02,0,0-.01-.01-.02-.02s-.01,0-.02-.01c0,0-.01,0-.02-.01,0,0-.01,0-.02-.01,0,0-.01,0-.02-.01,0,0-.01,0-.02-.01-.1-.05-.2-.06-.3-.05-.13.04-.24.1-.31.22-.06.1-.07.24-.03.35.04.11.12.2.23.26Z" fill="url(#linear-gradient)"/>
  </g>
  <g>
    <path d="M108.65,35.15c.46,1.03.84,1.73,1.14,2.11s.61.57.94.57h.05v.2c-.09.02-.17.03-.24.03s-.12,0-.18,0c-.33,0-.6-.03-.8-.1-.2-.06-.38-.17-.54-.32-.24-.24-.5-.67-.79-1.31-.1-.23-.18-.4-.24-.51-.11-.23-.34-.34-.69-.35-.1,0-.19,0-.25,0v.78c0,.69.05,1.12.15,1.3s.28.28.55.29v.2c-.17,0-.35-.02-.54-.05-.19-.03-.4-.06-.63-.11-.28.05-.5.09-.68.11-.18.02-.35.04-.5.05v-.2c.27-.02.46-.11.55-.28s.15-.58.15-1.24v-2.24c0-.69-.05-1.12-.15-1.3s-.3-.28-.58-.3v-.19c.18,0,.36.02.53.05.18.02.36.06.55.1.22-.05.44-.09.66-.12s.44-.04.67-.04c.62,0,1.09.12,1.4.38.32.25.48.62.48,1.11,0,.33-.09.61-.26.86-.17.25-.42.43-.73.54ZM107.04,35.17c.11.02.2.03.28.03.08,0,.15,0,.21,0,.33,0,.59-.11.77-.33.19-.22.28-.52.28-.91,0-.45-.1-.79-.31-1.04s-.49-.37-.87-.37c-.06,0-.16,0-.31.03-.02,0-.03,0-.04,0v.05c0,.53-.01.91-.01,1.17v1.35Z"/>
    <path d="M115.33,32.28c.18.01.36.03.54.06.18.03.36.06.55.11.26-.05.55-.09.88-.12s.69-.04,1.09-.04h.26c.21,0,.34.01.39.04.06.03.08.08.08.16,0,.03,0,.06-.03.1s-.04.09-.08.15c.03.18.04.32.05.43,0,.1.01.2.01.28,0,.02,0,.04,0,.07,0,.03,0,.06,0,.07h-.21c-.02-.33-.1-.56-.25-.69-.15-.12-.43-.19-.83-.19h-.75c0,.21-.01.42-.02.63,0,.21,0,.42,0,.63v.9h.7c.34,0,.57-.04.69-.12.12-.08.18-.22.21-.42h.22c0,.11-.02.22-.04.34-.02.12-.05.25-.08.39.03.15.06.29.08.41.02.12.03.24.04.34h-.22c-.02-.21-.08-.36-.19-.44-.11-.07-.35-.11-.73-.11h-.67v1.21c0,.54.05.87.16.97.11.1.36.16.75.16.45,0,.79-.09,1.01-.26s.36-.45.41-.84h.24c-.02.22-.04.41-.08.57-.04.16-.09.31-.15.45.02.05.04.09.05.13.01.04.02.08.02.11,0,.11-.05.18-.15.21-.1.04-.34.06-.71.06h-.32c-.4,0-.74-.01-1.03-.04-.29-.03-.54-.07-.76-.13-.21.05-.41.09-.59.12-.18.03-.35.05-.51.05v-.2c.28-.02.46-.12.56-.3.1-.18.15-.64.15-1.4v-1.54c0-.12,0-.23,0-.35,0-.12,0-.18,0-.19,0-.67-.05-1.09-.15-1.27-.1-.18-.28-.28-.55-.31v-.2Z"/>
    <path d="M124.81,37.97c.02-.12.04-.22.07-.33s.06-.2.09-.3c-.03-.19-.05-.36-.07-.51-.01-.15-.02-.29-.02-.43,0-.02,0-.05,0-.1,0-.04,0-.08,0-.1h.25c.02.51.16.9.4,1.19.24.29.56.43.96.43.31,0,.56-.09.75-.27.19-.18.28-.43.28-.73,0-.27-.08-.49-.23-.67-.15-.18-.46-.38-.93-.6-.56-.26-.94-.52-1.15-.78-.21-.25-.31-.57-.31-.95,0-.49.16-.88.48-1.19.32-.3.75-.45,1.27-.45.19,0,.4.02.63.07.23.05.38.07.42.07.04,0,.08,0,.11-.03.03-.02.05-.05.06-.08l.23.02c-.02.09-.04.17-.07.26-.03.09-.05.17-.08.25.02.13.03.26.04.38,0,.12.01.24.01.35,0,.03,0,.07,0,.12,0,.05,0,.09,0,.12h-.24c-.02-.39-.13-.7-.33-.92s-.46-.33-.78-.33c-.29,0-.52.08-.69.25-.17.17-.26.39-.26.67,0,.45.43.88,1.28,1.28.02,0,.03.01.04.02.5.24.86.49,1.06.75.2.26.31.58.31.95,0,.5-.18.91-.53,1.23-.36.32-.82.48-1.39.48-.26,0-.53-.05-.81-.15s-.44-.15-.47-.15c-.05,0-.09.01-.12.04s-.05.06-.07.12l-.21-.02Z"/>
    <path d="M133.6,32.28c.17,0,.35.03.55.06.2.03.41.06.64.1.23-.04.44-.08.64-.1.2-.03.38-.05.55-.05v.19c-.27.02-.46.12-.56.29-.1.17-.15.59-.15,1.24v2.26c0,.67.05,1.09.15,1.27.1.18.28.28.55.31v.19c-.17,0-.35-.02-.55-.05-.2-.03-.41-.06-.64-.1-.28.05-.51.08-.69.11-.19.02-.35.04-.5.05v-.19c.27-.02.46-.12.56-.29.1-.17.15-.59.15-1.24v-2.24c0-.67-.05-1.09-.15-1.27-.1-.18-.28-.29-.56-.31v-.19Z"/>
    <path d="M142.17,37.87c-.22.04-.42.07-.62.1-.19.03-.38.05-.55.06v-.2c.27-.02.46-.11.56-.29.1-.17.14-.59.14-1.25v-2.3c0-.65-.05-1.06-.14-1.24-.1-.17-.28-.27-.56-.29v-.19c.17,0,.35.02.55.05.19.03.4.06.62.11.26-.06.52-.11.76-.14s.47-.04.69-.04c.96,0,1.72.26,2.27.78.55.52.83,1.23.83,2.14s-.27,1.6-.82,2.12c-.55.52-1.3.78-2.25.78-.21,0-.43-.01-.65-.04-.22-.03-.5-.08-.84-.16ZM142.67,35.73c0,.69,0,1.13.01,1.33,0,.2.03.33.05.4.04.12.13.21.26.26.13.05.33.08.58.08.64,0,1.13-.22,1.49-.66.36-.44.54-1.06.54-1.85,0-.87-.19-1.55-.58-2.03-.39-.48-.94-.71-1.66-.71-.13,0-.25,0-.35.01-.1.01-.2.03-.29.05-.02.23-.03.5-.04.83s-.01.71-.01,1.15v1.14Z"/>
    <path d="M151.77,32.28c.18.01.36.03.54.06.18.03.36.06.55.11.26-.05.55-.09.88-.12s.69-.04,1.09-.04h.26c.21,0,.34.01.39.04.06.03.08.08.08.16,0,.03,0,.06-.03.1-.02.04-.04.09-.08.15.03.18.04.32.05.43,0,.1.01.2.01.28,0,.02,0,.04,0,.07,0,.03,0,.06,0,.07h-.21c-.02-.33-.1-.56-.25-.69-.15-.12-.43-.19-.83-.19h-.75c0,.21-.01.42-.01.63,0,.21,0,.42,0,.63v.9h.7c.34,0,.57-.04.69-.12.12-.08.18-.22.21-.42h.23c0,.11-.02.22-.04.34-.02.12-.05.25-.08.39.03.15.06.29.08.41s.03.24.04.34h-.22c-.02-.21-.08-.36-.19-.44-.11-.07-.35-.11-.73-.11h-.67v1.21c0,.54.05.87.16.97.11.1.36.16.75.16.45,0,.79-.09,1.01-.26s.36-.45.41-.84h.24c-.02.22-.04.41-.08.57-.04.16-.09.31-.15.45.02.05.04.09.05.13.01.04.02.08.02.11,0,.11-.05.18-.15.21-.1.04-.34.06-.71.06h-.32c-.4,0-.74-.01-1.03-.04-.29-.03-.54-.07-.76-.13-.21.05-.41.09-.59.12-.18.03-.35.05-.51.05v-.2c.28-.02.46-.12.56-.3.1-.18.15-.64.15-1.4v-1.54c0-.12,0-.23,0-.35,0-.12,0-.18,0-.19,0-.67-.05-1.09-.15-1.27-.1-.18-.28-.28-.55-.31v-.2Z"/>
    <path d="M161.68,35.33v-1.04c0-.81-.05-1.31-.16-1.49s-.31-.29-.61-.31v-.2c.17.01.33.03.46.05.14.02.27.04.39.06.13-.04.23-.06.3-.08s.12-.02.16-.02c.13,0,.35.21.66.64.03.05.06.08.08.1.42.56.86,1.13,1.32,1.71.46.58.94,1.17,1.43,1.77v-2.17c0-.79-.05-1.3-.15-1.52-.1-.22-.28-.34-.55-.34v-.2c.12,0,.26.02.4.04.14.02.32.05.51.1.23-.05.41-.08.53-.1s.24-.03.34-.04v.2h-.03c-.25,0-.42.17-.51.5-.09.33-.13,1.15-.13,2.45v1.71c0,.16,0,.32,0,.49,0,.17,0,.33.01.5-.09-.03-.18-.05-.27-.06-.09-.01-.18-.02-.26-.02-.63-.86-1.23-1.66-1.82-2.41-.59-.75-1.15-1.45-1.69-2.1v1.46c0,.73,0,1.29.03,1.66.02.37.06.64.1.79.04.12.11.21.22.28.11.07.25.1.43.12v.2c-.16,0-.32-.02-.49-.05s-.34-.06-.51-.09c-.21.04-.38.08-.53.1-.14.02-.28.04-.39.04v-.2c.28,0,.47-.12.57-.36.1-.24.15-.89.15-1.95v-.2Z"/>
    <path d="M176.5,32.28l.18.07c-.03.12-.06.23-.08.32-.02.09-.05.17-.07.25.02.19.04.38.05.55,0,.17.01.34.01.51h-.26c-.03-.48-.18-.85-.44-1.12-.26-.26-.61-.4-1.05-.4-.59,0-1.05.24-1.39.72-.34.48-.51,1.13-.51,1.95s.18,1.46.55,1.95c.37.49.85.73,1.44.73.43,0,.78-.11,1.04-.33.26-.22.41-.53.47-.93h.26c-.01.13-.03.27-.05.4-.02.14-.05.27-.07.41.02.09.03.16.03.21,0,.05.01.09.01.13-.23.13-.5.24-.81.31-.31.07-.64.11-.98.11-.94,0-1.68-.26-2.23-.79-.55-.53-.82-1.24-.82-2.13s.28-1.64.83-2.19,1.28-.83,2.2-.83c.32,0,.64.03.98.1.33.07.51.1.53.1.05,0,.09,0,.12-.03s.06-.05.08-.08Z"/>
    <path d="M181.77,32.28c.18.01.36.03.54.06.18.03.36.06.55.11.26-.05.55-.09.88-.12s.69-.04,1.09-.04h.26c.21,0,.34.01.39.04.06.03.08.08.08.16,0,.03,0,.06-.03.1-.02.04-.04.09-.08.15.02.18.04.32.05.43,0,.1.01.2.01.28,0,.02,0,.04,0,.07,0,.03,0,.06,0,.07h-.21c-.02-.33-.1-.56-.25-.69-.15-.12-.43-.19-.83-.19h-.75c0,.21-.01.42-.02.63,0,.21,0,.42,0,.63v.9h.7c.34,0,.57-.04.69-.12.12-.08.18-.22.21-.42h.22c0,.11-.02.22-.04.34-.02.12-.05.25-.08.39.03.15.06.29.08.41.02.12.03.24.04.34h-.22c-.02-.21-.08-.36-.19-.44-.11-.07-.35-.11-.73-.11h-.67v1.21c0,.54.05.87.16.97.11.1.36.16.75.16.45,0,.79-.09,1.01-.26s.36-.45.41-.84h.24c-.02.22-.04.41-.08.57-.04.16-.09.31-.15.45.02.05.04.09.05.13.01.04.02.08.02.11,0,.11-.05.18-.15.21-.1.04-.33.06-.71.06h-.32c-.4,0-.74-.01-1.03-.04-.29-.03-.54-.07-.76-.13-.21.05-.41.09-.6.12-.18.03-.35.05-.51.05v-.2c.28-.02.46-.12.56-.3.1-.18.15-.64.15-1.4v-1.54c0-.12,0-.23,0-.35,0-.12,0-.18,0-.19,0-.67-.05-1.09-.15-1.27-.1-.18-.28-.28-.55-.31v-.2Z"/>
    <path d="M191.25,37.97c.02-.12.04-.22.07-.33s.06-.2.09-.3c-.03-.19-.05-.36-.07-.51-.01-.15-.02-.29-.02-.43,0-.02,0-.05,0-.1,0-.04,0-.08,0-.1h.25c.02.51.16.9.4,1.19.24.29.56.43.96.43.31,0,.56-.09.75-.27.19-.18.28-.43.28-.73,0-.27-.08-.49-.23-.67-.15-.18-.46-.38-.93-.6-.56-.26-.94-.52-1.15-.78s-.31-.57-.31-.95c0-.49.16-.88.48-1.19.32-.3.75-.45,1.27-.45.19,0,.4.02.63.07.23.05.37.07.42.07.04,0,.08,0,.11-.03.03-.02.05-.05.06-.08l.23.02c-.02.09-.04.17-.07.26-.02.09-.05.17-.08.25.02.13.03.26.04.38,0,.12.01.24.01.35,0,.03,0,.07,0,.12,0,.05,0,.09,0,.12h-.24c-.02-.39-.13-.7-.33-.92s-.46-.33-.78-.33c-.29,0-.51.08-.69.25-.17.17-.26.39-.26.67,0,.45.43.88,1.28,1.28.02,0,.03.01.04.02.5.24.86.49,1.06.75.2.26.31.58.31.95,0,.5-.18.91-.53,1.23-.35.32-.82.48-1.39.48-.26,0-.53-.05-.81-.15s-.44-.15-.47-.15c-.05,0-.09.01-.12.04-.03.02-.05.06-.07.12l-.21-.02Z"/>
  </g>
</svg>